<svg xmlns="http://www.w3.org/2000/svg" viewBox="0 0 48 48">
  <rect width="48" height="48" rx="10" fill="#000000"/>
  <g transform="translate(7.33 3.5) scale(0.8333)">
    <path d="M20 47 L6.21 30.57 A18 18 0 1 1 33.79 30.57 Z" fill="#1554FF"/>
    <rect x="8.5" y="10.5" width="14.5" height="11" rx="1.5" fill="#fff"/>
    <path d="M24.5 13.5h4.6c.5 0 .9.2 1.2.6l2.4 3.1c.2.3.3.6.3.9v3.4h-8.5z" fill="#fff"/>
    <path d="M26 15h2.9l1.9 2.5H26z" fill="#1554FF"/>
    <rect x="8.5" y="21" width="24.5" height="2.4" rx="0.6" fill="#fff"/>
    <circle cx="13.5" cy="24.6" r="2.9" fill="#fff"/>
    <circle cx="13.5" cy="24.6" r="1.1" fill="#1554FF"/>
    <circle cx="28.3" cy="24.6" r="2.9" fill="#fff"/>
    <circle cx="28.3" cy="24.6" r="1.1" fill="#1554FF"/>
    <path d="M13.7 14.3a2.05 2.05 0 1 1 3.05 1.8c-.65.38-.95.75-.95 1.45" fill="none" stroke="#1554FF" stroke-width="1.6" stroke-linecap="round"/>
    <circle cx="15.8" cy="19.4" r="0.95" fill="#1554FF"/>
  </g>
</svg>
